<svg width="114" height="114" viewBox="0 0 114 114" fill="none" xmlns="http://www.w3.org/2000/svg">
<path d="M105.59 0.000431706H8.40984C6.20488 -0.0220084 4.08108 0.831178 2.50444 2.37278C0.9278 3.91438 0.0271089 6.01848 0 8.22338V105.796C0.0320114 107.998 0.934857 110.097 2.51096 111.635C4.08707 113.172 6.20808 114.023 8.40984 114H105.59C107.795 114.018 109.918 113.162 111.493 111.619C113.069 110.077 113.97 107.973 114 105.768V8.19535C113.961 5.99691 113.055 3.90285 111.48 2.36832C109.906 0.833795 107.789 -0.0171557 105.59 0.000431706Z" fill="#0076B2"/>
<path d="M16.8759 42.7318H33.7983V97.1808H16.8759V42.7318ZM25.3418 15.6334C27.2827 15.6334 29.18 16.2091 30.7937 17.2876C32.4074 18.3661 33.6649 19.899 34.4073 21.6924C35.1496 23.4857 35.3433 25.459 34.964 27.3625C34.5847 29.266 33.6493 31.0142 32.2762 32.386C30.9031 33.7577 29.154 34.6915 27.2501 35.069C25.3463 35.4465 23.3732 35.2509 21.5806 34.5068C19.7879 33.7628 18.2562 32.5038 17.1793 30.8891C16.1023 29.2743 15.5284 27.3765 15.5303 25.4356C15.5328 22.835 16.5676 20.3418 18.4073 18.5038C20.247 16.6658 22.7412 15.6334 25.3418 15.6334Z" fill="white"/>
<path d="M44.4136 42.7318H60.6352V50.2072H60.8595C63.1208 45.9276 68.6339 41.4143 76.8662 41.4143C94.0036 41.3769 97.1806 52.6554 97.1806 67.2792V97.1808H80.2582V70.6899C80.2582 64.3825 80.146 56.2623 71.4652 56.2623C62.7844 56.2623 61.308 63.1397 61.308 70.2787V97.1808H44.4136V42.7318Z" fill="white"/>
</svg>
