<svg width="66" height="64" viewBox="0 0 66 64" fill="none" xmlns="http://www.w3.org/2000/svg">
<path d="M65.3581 25.7328H62.7V25.6H33V38.4H51.65C48.9291 45.8512 41.618 51.2 33 51.2C22.0655 51.2 13.2 42.6032 13.2 32C13.2 21.3968 22.0655 12.8 33 12.8C38.0473 12.8 42.6393 14.6464 46.1357 17.6624L55.4697 8.6112C49.5759 3.2848 41.6922 0 33 0C14.7757 0 0 14.328 0 32C0 49.672 14.7757 64 33 64C51.2243 64 66 49.672 66 32C66 29.8544 65.7723 27.76 65.3581 25.7328Z" fill="#FFC107"/>
<path d="M3.80518 17.1056L14.6473 24.816C17.581 17.7728 24.6859 12.8 33.0003 12.8C38.0476 12.8 42.6396 14.6464 46.1359 17.6624L55.47 8.6112C49.5762 3.2848 41.6925 0 33.0003 0C20.325 0 9.33268 6.9392 3.80518 17.1056Z" fill="#FF3D00"/>
<path d="M32.9998 64C41.5237 64 49.2688 60.8368 55.1247 55.6928L44.9112 47.312C41.598 49.7456 37.4796 51.2 32.9998 51.2C24.4165 51.2 17.1285 45.8928 14.3829 38.4864L3.62158 46.5264C9.08308 56.8896 20.1744 64 32.9998 64Z" fill="#4CAF50"/>
<path d="M65.3582 25.7328H62.7V25.6H33V38.4H51.65C50.3432 41.9792 47.9688 45.0656 44.9064 47.3136C44.908 47.312 44.9097 47.312 44.9113 47.3104L55.1249 55.6912C54.4022 56.328 66 48 66 32C66 29.8544 65.7723 27.76 65.3582 25.7328Z" fill="#1976D2"/>
</svg>
