<svg width="67" height="67" viewBox="0 0 67 67" fill="none" xmlns="http://www.w3.org/2000/svg">
<path d="M62.0574 0.00025372H4.94262C3.64673 -0.0129346 2.39853 0.488496 1.47191 1.39452C0.545286 2.30054 0.0159324 3.53715 0 4.833V62.178C0.0188137 63.4719 0.549434 64.7057 1.47574 65.6094C2.40205 66.513 3.64861 67.013 4.94262 66.9997H62.0574C63.3534 67.01 64.6007 66.5069 65.5269 65.6003C66.453 64.6937 66.9826 63.4574 67 62.1615V4.81653C66.9769 3.52447 66.4447 2.29376 65.5192 1.3919C64.5937 0.490034 63.3496 -0.0100827 62.0574 0.00025372Z" fill="#0076B2"/>
<path d="M9.91826 25.1141H19.8639V57.1146H9.91826V25.1141ZM14.8938 9.18796C16.0346 9.18796 17.1496 9.52629 18.098 10.1601C19.0464 10.794 19.7855 11.6949 20.2218 12.7489C20.6581 13.8029 20.772 14.9626 20.549 16.0813C20.3261 17.2 19.7763 18.2275 18.9693 19.0337C18.1624 19.8399 17.1344 20.3887 16.0154 20.6105C14.8965 20.8324 13.7369 20.7174 12.6833 20.2801C11.6298 19.8429 10.7295 19.1029 10.0966 18.1539C9.46363 17.2049 9.12636 16.0895 9.12744 14.9488C9.1289 13.4204 9.73707 11.9552 10.8183 10.8749C11.8996 9.79473 13.3654 9.18796 14.8938 9.18796Z" fill="white"/>
<path d="M26.103 25.1141H35.6368V29.5075H35.7686C37.0976 26.9923 40.3378 24.3397 45.1761 24.3397C55.248 24.3178 57.1152 30.9463 57.1152 39.5409V57.1146H47.1696V41.5454C47.1696 37.8385 47.1037 33.0662 42.0018 33.0662C36.8999 33.0662 36.0322 37.1081 36.0322 41.3038V57.1146H26.103V25.1141Z" fill="white"/>
</svg>
