<svg width="114" height="114" viewBox="0 0 114 114" fill="none" xmlns="http://www.w3.org/2000/svg">
<path d="M112.891 45.8365H108.3V45.6H57V68.4H89.2136C84.5139 81.6724 71.8856 91.2 57 91.2C38.113 91.2 22.8 75.8869 22.8 57C22.8 38.113 38.113 22.8 57 22.8C65.7181 22.8 73.6497 26.0889 79.6889 31.4611L95.8113 15.3387C85.6311 5.85105 72.0138 0 57 0C25.5217 0 0 25.5217 0 57C0 88.4782 25.5217 114 57 114C88.4782 114 114 88.4782 114 57C114 53.1782 113.607 49.4475 112.891 45.8365Z" fill="#FFC107"/>
<path d="M6.57275 30.4693L25.3001 44.2035C30.3674 31.6578 42.6395 22.8 57.0007 22.8C65.7188 22.8 73.6504 26.0889 79.6895 31.4611L95.812 15.3387C85.6318 5.85105 72.0145 0 57.0007 0C35.107 0 16.1203 12.3604 6.57275 30.4693Z" fill="#FF3D00"/>
<path d="M56.9991 114C71.7222 114 85.1001 108.366 95.2148 99.2029L77.5733 84.2746C71.8505 88.6094 64.7369 91.2001 56.9991 91.2001C42.1734 91.2001 29.585 81.7466 24.8426 68.554L6.25488 82.8752C15.6884 101.335 34.8461 114 56.9991 114Z" fill="#4CAF50"/>
<path d="M112.891 45.8365H108.3V45.6H57V68.4H89.2136C86.9564 74.7754 82.8552 80.2731 77.5656 84.2773C77.5684 84.2745 77.5713 84.2745 77.5741 84.2716L95.2156 99.1999C93.9674 100.334 114 85.5 114 57C114 53.1781 113.607 49.4475 112.891 45.8365Z" fill="#1976D2"/>
</svg>
